<?xml version="1.0" encoding="UTF-8" standalone="no"?>
<svg id="svg2" xmlns:rdf="http://www.w3.org/1999/02/22-rdf-syntax-ns#" xmlns="http://www.w3.org/2000/svg" height="192" width="192" version="1.1" xmlns:cc="http://creativecommons.org/ns#" xmlns:xlink="http://www.w3.org/1999/xlink" xmlns:dc="http://purl.org/dc/elements/1.1/">
 <metadata id="metadata45">
  <rdf:RDF>
   <cc:Work rdf:about="">
    <dc:format>image/svg+xml</dc:format>
    <dc:type rdf:resource="http://purl.org/dc/dcmitype/StillImage"/>
    <dc:title/>
   </cc:Work>
  </rdf:RDF>
 </metadata>
 <g id="layer3" fill-rule="evenodd" transform="translate(0,144)">
  <g id="g6353" transform="matrix(1.7708 0 0 1.7708 -74 -203.83)">
   <path id="path6340" d="m96 40a48 48 0 0 0 -48 48 48 48 0 0 0 48 48 48 48 0 0 0 48 -48 48 48 0 0 0 -48 -48zm0 12a36 36 0 0 1 3.5938 0.17969 36 36 0 0 1 3.5586 0.53711 36 36 0 0 1 3.4863 0.89062 36 36 0 0 1 3.3809 1.2344 36 36 0 0 1 3.2402 1.5645 36 36 0 0 1 3.0664 1.8809 36 36 0 0 1 2.8652 2.1777 36 36 0 0 1 2.6328 2.4531 36 36 0 0 1 2.375 2.7031 36 36 0 0 1 2.0938 2.9277 36 36 0 0 1 1.791 3.1211 36 36 0 0 1 1.4688 3.2852 36 36 0 0 1 1.1348 3.4141 36 36 0 0 1 0.78906 3.5117 36 36 0 0 1 0.4336 3.5723 36 36 0 0 1 0.09 2.547 36 36 0 0 1 -0.17969 3.5938 36 36 0 0 1 -0.53711 3.5586 36 36 0 0 1 -0.89062 3.4863 36 36 0 0 1 -1.2344 3.3809 36 36 0 0 1 -1.5644 3.2402 36 36 0 0 1 -1.8809 3.0684 36 36 0 0 1 -2.1777 2.8633 36 36 0 0 1 -2.4531 2.6328 36 36 0 0 1 -2.7031 2.375 36 36 0 0 1 -2.9277 2.0938 36 36 0 0 1 -3.1211 1.791 36 36 0 0 1 -3.2852 1.4688 36 36 0 0 1 -3.4141 1.1348 36 36 0 0 1 -3.5117 0.78906 36 36 0 0 1 -3.5723 0.4336 36 36 0 0 1 -2.547 0.09 36 36 0 0 1 -3.5938 -0.17969 36 36 0 0 1 -3.5586 -0.53711 36 36 0 0 1 -3.4863 -0.89062 36 36 0 0 1 -3.3809 -1.2344 36 36 0 0 1 -3.2402 -1.5644 36 36 0 0 1 -3.0664 -1.8809 36 36 0 0 1 -2.8652 -2.1777 36 36 0 0 1 -2.6328 -2.4531 36 36 0 0 1 -2.375 -2.7031 36 36 0 0 1 -2.0938 -2.9277 36 36 0 0 1 -1.791 -3.1211 36 36 0 0 1 -1.4688 -3.2852 36 36 0 0 1 -1.135 -3.409 36 36 0 0 1 -0.789 -3.512 36 36 0 0 1 -0.433 -3.572 36 36 0 0 1 -0.09 -2.547 36 36 0 0 1 0.17969 -3.5938 36 36 0 0 1 0.53711 -3.5586 36 36 0 0 1 0.89062 -3.4863 36 36 0 0 1 1.2344 -3.3809 36 36 0 0 1 1.5645 -3.2402 36 36 0 0 1 1.8809 -3.0664 36 36 0 0 1 2.1777 -2.8652 36 36 0 0 1 2.4531 -2.6328 36 36 0 0 1 2.7031 -2.375 36 36 0 0 1 2.9277 -2.0938 36 36 0 0 1 3.1211 -1.791 36 36 0 0 1 3.2852 -1.4688 36 36 0 0 1 3.4141 -1.1348 36 36 0 0 1 3.5117 -0.78906 36 36 0 0 1 3.5723 -0.43359 36 36 0 0 1 2.547 -0.089z" fill="#ffffff"/>
  </g>
  <g>
   <circle id="path6338" cx="124.33" cy="-19.667" r="17.708" fill="#27ae60"/>
   <path id="path6443" d="m96-133a85 85 0 0 0 -85 85 85 85 0 0 0 85 85 85 85 0 0 0 85 -85 85 85 0 0 0 -85 -85zm0 21.25a63.75 63.75 0 0 1 6.3639 0.3182 63.75 63.75 0 0 1 6.3017 0.95113 63.75 63.75 0 0 1 6.1737 1.5771 63.75 63.75 0 0 1 5.9869 2.1859 63.75 63.75 0 0 1 5.7379 2.7704 63.75 63.75 0 0 1 5.4301 3.3307 63.75 63.75 0 0 1 5.0739 3.8564 63.75 63.75 0 0 1 4.6623 4.3441 63.75 63.75 0 0 1 4.2057 4.7868 63.75 63.75 0 0 1 3.7077 5.1845 63.75 63.75 0 0 1 3.1716 5.5269 63.75 63.75 0 0 1 2.6009 5.8175 63.75 63.75 0 0 1 2.0095 6.0457 63.75 63.75 0 0 1 1.3973 6.2187 63.75 63.75 0 0 1 0.76783 6.3259 63.75 63.75 0 0 1 0.15902 4.5101 63.75 63.75 0 0 1 -0.3182 6.3639 63.75 63.75 0 0 1 -0.95113 6.3017 63.75 63.75 0 0 1 -1.5771 6.1737 63.75 63.75 0 0 1 -2.1859 5.9869 63.75 63.75 0 0 1 -2.7704 5.7379 63.75 63.75 0 0 1 -3.3307 5.4335 63.75 63.75 0 0 1 -3.8564 5.0704 63.75 63.75 0 0 1 -4.3441 4.6623 63.75 63.75 0 0 1 -4.7868 4.2057 63.75 63.75 0 0 1 -5.1845 3.7077 63.75 63.75 0 0 1 -5.5269 3.1716 63.75 63.75 0 0 1 -5.8175 2.6009 63.75 63.75 0 0 1 -6.0457 2.0095 63.75 63.75 0 0 1 -6.2187 1.3973 63.75 63.75 0 0 1 -6.3259 0.76783 63.75 63.75 0 0 1 -4.5101 0.15902 63.75 63.75 0 0 1 -6.3639 -0.3182 63.75 63.75 0 0 1 -6.3017 -0.95113 63.75 63.75 0 0 1 -6.176 -1.587 63.75 63.75 0 0 1 -5.987 -2.185 63.75 63.75 0 0 1 -5.738 -2.7708 63.75 63.75 0 0 1 -5.43 -3.3307 63.75 63.75 0 0 1 -5.074 -3.8564 63.75 63.75 0 0 1 -4.662 -4.3441 63.75 63.75 0 0 1 -4.2057 -4.7868 63.75 63.75 0 0 1 -3.7077 -5.1845 63.75 63.75 0 0 1 -3.1716 -5.5269 63.75 63.75 0 0 1 -2.6009 -5.8175 63.75 63.75 0 0 1 -2.0094 -6.0457 63.75 63.75 0 0 1 -1.3973 -6.2187 63.75 63.75 0 0 1 -0.76783 -6.3259 63.75 63.75 0 0 1 -0.15902 -4.5101 63.75 63.75 0 0 1 0.3182 -6.3639 63.75 63.75 0 0 1 0.95113 -6.3017 63.75 63.75 0 0 1 1.5771 -6.1737 63.75 63.75 0 0 1 2.1859 -5.9869 63.75 63.75 0 0 1 2.7704 -5.7379 63.75 63.75 0 0 1 3.3307 -5.4301 63.75 63.75 0 0 1 3.8564 -5.0739 63.75 63.75 0 0 1 4.3441 -4.6623 63.75 63.75 0 0 1 4.7868 -4.2057 63.75 63.75 0 0 1 5.1845 -3.7077 63.75 63.75 0 0 1 5.5269 -3.1716 63.75 63.75 0 0 1 5.8175 -2.6009 63.75 63.75 0 0 1 6.0457 -2.0095 63.75 63.75 0 0 1 6.2187 -1.3973 63.75 63.75 0 0 1 6.3259 -0.76783 63.75 63.75 0 0 1 4.51 -0.15902z" fill="#f2f2f2"/>
   <path id="path6598" d="m137.04-32.004-0.18331-0.1833-0.007 0.0071a17.708 17.708 0 0 1 0.19022 0.17638z" fill="#000000"/>
  </g>
 </g>
</svg>
