<?xml version="1.0" encoding="UTF-8" standalone="no"?>
<svg id="svg2" xmlns:rdf="http://www.w3.org/1999/02/22-rdf-syntax-ns#" xmlns="http://www.w3.org/2000/svg" height="32" width="32" version="1.1" xmlns:cc="http://creativecommons.org/ns#" xmlns:dc="http://purl.org/dc/elements/1.1/">
 <metadata id="metadata45">
  <rdf:RDF>
   <cc:Work rdf:about="">
    <dc:format>image/svg+xml</dc:format>
    <dc:type rdf:resource="http://purl.org/dc/dcmitype/StillImage"/>
    <dc:title/>
   </cc:Work>
  </rdf:RDF>
 </metadata>
 <g id="layer3" fill-rule="evenodd" transform="translate(0,-16)">
  <g id="g6353" transform="matrix(.29167 0 0 .29167 -12 6.3333)">
   <path id="path6340" d="m96 40a48 48 0 0 0 -48 48 48 48 0 0 0 48 48 48 48 0 0 0 48 -48 48 48 0 0 0 -48 -48zm0 12a36 36 0 0 1 3.5938 0.17969 36 36 0 0 1 3.5586 0.53711 36 36 0 0 1 3.4863 0.89062 36 36 0 0 1 3.3809 1.2344 36 36 0 0 1 3.2402 1.5645 36 36 0 0 1 3.0664 1.8809 36 36 0 0 1 2.8652 2.1777 36 36 0 0 1 2.6328 2.4531 36 36 0 0 1 2.375 2.7031 36 36 0 0 1 2.0938 2.9277 36 36 0 0 1 1.791 3.1211 36 36 0 0 1 1.4688 3.2852 36 36 0 0 1 1.1348 3.4141 36 36 0 0 1 0.78906 3.5117 36 36 0 0 1 0.4336 3.5723 36 36 0 0 1 0.09 2.547 36 36 0 0 1 -0.17969 3.5938 36 36 0 0 1 -0.53711 3.5586 36 36 0 0 1 -0.89062 3.4863 36 36 0 0 1 -1.2344 3.3809 36 36 0 0 1 -1.5644 3.2402 36 36 0 0 1 -1.8809 3.0684 36 36 0 0 1 -2.1777 2.8633 36 36 0 0 1 -2.4531 2.6328 36 36 0 0 1 -2.7031 2.375 36 36 0 0 1 -2.9277 2.0938 36 36 0 0 1 -3.1211 1.791 36 36 0 0 1 -3.2852 1.4688 36 36 0 0 1 -3.4141 1.1348 36 36 0 0 1 -3.5117 0.78906 36 36 0 0 1 -3.5723 0.4336 36 36 0 0 1 -2.547 0.09 36 36 0 0 1 -3.5938 -0.17969 36 36 0 0 1 -3.5586 -0.53711 36 36 0 0 1 -3.4863 -0.89062 36 36 0 0 1 -3.3809 -1.2344 36 36 0 0 1 -3.2402 -1.5644 36 36 0 0 1 -3.0664 -1.8809 36 36 0 0 1 -2.8652 -2.1777 36 36 0 0 1 -2.6328 -2.4531 36 36 0 0 1 -2.375 -2.7031 36 36 0 0 1 -2.0938 -2.9277 36 36 0 0 1 -1.791 -3.1211 36 36 0 0 1 -1.4688 -3.2852 36 36 0 0 1 -1.135 -3.409 36 36 0 0 1 -0.789 -3.512 36 36 0 0 1 -0.433 -3.572 36 36 0 0 1 -0.09 -2.547 36 36 0 0 1 0.17969 -3.5938 36 36 0 0 1 0.53711 -3.5586 36 36 0 0 1 0.89062 -3.4863 36 36 0 0 1 1.2344 -3.3809 36 36 0 0 1 1.5645 -3.2402 36 36 0 0 1 1.8809 -3.0664 36 36 0 0 1 2.1777 -2.8652 36 36 0 0 1 2.4531 -2.6328 36 36 0 0 1 2.7031 -2.375 36 36 0 0 1 2.9277 -2.0938 36 36 0 0 1 3.1211 -1.791 36 36 0 0 1 3.2852 -1.4688 36 36 0 0 1 3.4141 -1.1348 36 36 0 0 1 3.5117 -0.78906 36 36 0 0 1 3.5723 -0.43359 36 36 0 0 1 2.547 -0.089z" fill="#ffffff"/>
  </g>
  <g>
   <path id="path6443" d="m16 18a14 14 0 0 0 -14 14 14 14 0 0 0 14 14 14 14 0 0 0 14 -14 14 14 0 0 0 -14 -14zm0 3.5a10.5 10.5 0 0 1 1.0482 0.05241 10.5 10.5 0 0 1 1.0379 0.15666 10.5 10.5 0 0 1 1.0168 0.25976 10.5 10.5 0 0 1 0.98608 0.36003 10.5 10.5 0 0 1 0.94507 0.4563 10.5 10.5 0 0 1 0.89437 0.54858 10.5 10.5 0 0 1 0.83569 0.63517 10.5 10.5 0 0 1 0.76791 0.7155 10.5 10.5 0 0 1 0.6927 0.78841 10.5 10.5 0 0 1 0.61068 0.85392 10.5 10.5 0 0 1 0.52238 0.91032 10.5 10.5 0 0 1 0.42838 0.95817 10.5 10.5 0 0 1 0.33098 0.99577 10.5 10.5 0 0 1 0.23014 1.0243 10.5 10.5 0 0 1 0.12647 1.0419 10.5 10.5 0 0 1 0.0262 0.74284 10.5 10.5 0 0 1 -0.0524 1.0482 10.5 10.5 0 0 1 -0.15666 1.0379 10.5 10.5 0 0 1 -0.25976 1.0168 10.5 10.5 0 0 1 -0.36003 0.98608 10.5 10.5 0 0 1 -0.4563 0.94507 10.5 10.5 0 0 1 -0.54858 0.89494 10.5 10.5 0 0 1 -0.63517 0.83513 10.5 10.5 0 0 1 -0.7155 0.7679 10.5 10.5 0 0 1 -0.78841 0.69271 10.5 10.5 0 0 1 -0.85392 0.61068 10.5 10.5 0 0 1 -0.91032 0.52238 10.5 10.5 0 0 1 -0.95817 0.42838 10.5 10.5 0 0 1 -0.99577 0.33098 10.5 10.5 0 0 1 -1.0243 0.23014 10.5 10.5 0 0 1 -1.0419 0.12647 10.5 10.5 0 0 1 -0.74284 0.02619 10.5 10.5 0 0 1 -1.0482 -0.05241 10.5 10.5 0 0 1 -1.037 -0.156 10.5 10.5 0 0 1 -1.017 -0.26 10.5 10.5 0 0 1 -0.986 -0.36 10.5 10.5 0 0 1 -0.945 -0.456 10.5 10.5 0 0 1 -0.894 -0.549 10.5 10.5 0 0 1 -0.8362 -0.635 10.5 10.5 0 0 1 -0.7679 -0.715 10.5 10.5 0 0 1 -0.6927 -0.789 10.5 10.5 0 0 1 -0.6106 -0.854 10.5 10.5 0 0 1 -0.5224 -0.91 10.5 10.5 0 0 1 -0.4284 -0.958 10.5 10.5 0 0 1 -0.331 -0.996 10.5 10.5 0 0 1 -0.2301 -1.024 10.5 10.5 0 0 1 -0.1265 -1.042 10.5 10.5 0 0 1 -0.02619 -0.74284 10.5 10.5 0 0 1 0.05241 -1.0482 10.5 10.5 0 0 1 0.15666 -1.0379 10.5 10.5 0 0 1 0.25976 -1.0168 10.5 10.5 0 0 1 0.36003 -0.98608 10.5 10.5 0 0 1 0.4563 -0.94507 10.5 10.5 0 0 1 0.54858 -0.89437 10.5 10.5 0 0 1 0.63517 -0.8357 10.5 10.5 0 0 1 0.7155 -0.7679 10.5 10.5 0 0 1 0.78841 -0.69271 10.5 10.5 0 0 1 0.85392 -0.61068 10.5 10.5 0 0 1 0.91032 -0.52238 10.5 10.5 0 0 1 0.95817 -0.42838 10.5 10.5 0 0 1 0.99577 -0.33098 10.5 10.5 0 0 1 1.0243 -0.23014 10.5 10.5 0 0 1 1.0419 -0.12647 10.5 10.5 0 0 1 0.74283 -0.02619z" fill="#f2f2f2"/>
   <path id="path6598" d="m22.759 34.635-0.0302-0.03019-0.001 0.0012a2.9167 2.9167 0 0 1 0.0313 0.02905z" fill="#000000"/>
   <circle id="circle4226" cy="43.083" cx="27.083" r="2.9167" fill="#da4453"/>
  </g>
 </g>
</svg>
