<svg xmlns="http://www.w3.org/2000/svg" viewBox="0 0 24 24">
  <defs id="defs3051">
    <style type="text/css" id="current-color-scheme">
      .ColorScheme-Text {
        color:#4d4d4d;
      }
      </style>
  </defs>
  <a transform="translate(1,1)">
 <path 
     style="fill:currentColor;fill-opacity:1;stroke:none" 
     d="M 3,3 3,6 6,6 6,3 Z m 4,0 0,1 9,0 1,-1 z m 0,2 0,1 4,0 1,0 1.169922,0 1,-1 z m -4,5 0,1 0,1 0,1 3,0 0,-1 0,-1 0,-1 z m 4,0 0,1 2,0 1,-1 z m 7,0 -1,1 4,0 0,-1 z m -2,2 -1,1 2,0 0,-1 z m -3.1699219,3 -1,1 L 17,16 l 0,-1 -6,0 -1,0 z M 7,17 l -1,1 8,0 0,-1 z m 10,1 0,1 2,0 0,-1 z"
	 class="ColorScheme-Text"
     />
 </a>
</svg>
