<?xml version="1.0" encoding="UTF-8" standalone="no"?>
<svg id="svg2" xmlns:rdf="http://www.w3.org/1999/02/22-rdf-syntax-ns#" xmlns="http://www.w3.org/2000/svg" height="24" width="24" version="1.1" xmlns:cc="http://creativecommons.org/ns#" xmlns:dc="http://purl.org/dc/elements/1.1/">
 <metadata id="metadata45">
  <rdf:RDF>
   <cc:Work rdf:about="">
    <dc:format>image/svg+xml</dc:format>
    <dc:type rdf:resource="http://purl.org/dc/dcmitype/StillImage"/>
    <dc:title/>
   </cc:Work>
  </rdf:RDF>
 </metadata>
 <g id="layer3" fill-rule="evenodd" transform="translate(0,-24)">
  <g id="g6353" transform="matrix(.20833 0 0 .20833 -8 17.667)">
   <path id="path6340" d="m96 40a48 48 0 0 0 -48 48 48 48 0 0 0 48 48 48 48 0 0 0 48 -48 48 48 0 0 0 -48 -48zm0 12a36 36 0 0 1 3.5938 0.17969 36 36 0 0 1 3.5586 0.53711 36 36 0 0 1 3.4863 0.89062 36 36 0 0 1 3.3809 1.2344 36 36 0 0 1 3.2402 1.5645 36 36 0 0 1 3.0664 1.8809 36 36 0 0 1 2.8652 2.1777 36 36 0 0 1 2.6328 2.4531 36 36 0 0 1 2.375 2.7031 36 36 0 0 1 2.0938 2.9277 36 36 0 0 1 1.791 3.1211 36 36 0 0 1 1.4688 3.2852 36 36 0 0 1 1.1348 3.4141 36 36 0 0 1 0.78906 3.5117 36 36 0 0 1 0.4336 3.5723 36 36 0 0 1 0.09 2.547 36 36 0 0 1 -0.17969 3.5938 36 36 0 0 1 -0.53711 3.5586 36 36 0 0 1 -0.89062 3.4863 36 36 0 0 1 -1.2344 3.3809 36 36 0 0 1 -1.5644 3.2402 36 36 0 0 1 -1.8809 3.0684 36 36 0 0 1 -2.1777 2.8633 36 36 0 0 1 -2.4531 2.6328 36 36 0 0 1 -2.7031 2.375 36 36 0 0 1 -2.9277 2.0938 36 36 0 0 1 -3.1211 1.791 36 36 0 0 1 -3.2852 1.4688 36 36 0 0 1 -3.4141 1.1348 36 36 0 0 1 -3.5117 0.78906 36 36 0 0 1 -3.5723 0.4336 36 36 0 0 1 -2.547 0.09 36 36 0 0 1 -3.5938 -0.17969 36 36 0 0 1 -3.5586 -0.53711 36 36 0 0 1 -3.4863 -0.89062 36 36 0 0 1 -3.3809 -1.2344 36 36 0 0 1 -3.2402 -1.5644 36 36 0 0 1 -3.0664 -1.8809 36 36 0 0 1 -2.8652 -2.1777 36 36 0 0 1 -2.6328 -2.4531 36 36 0 0 1 -2.375 -2.7031 36 36 0 0 1 -2.0938 -2.9277 36 36 0 0 1 -1.791 -3.1211 36 36 0 0 1 -1.4688 -3.2852 36 36 0 0 1 -1.135 -3.409 36 36 0 0 1 -0.789 -3.512 36 36 0 0 1 -0.433 -3.572 36 36 0 0 1 -0.09 -2.547 36 36 0 0 1 0.17969 -3.5938 36 36 0 0 1 0.53711 -3.5586 36 36 0 0 1 0.89062 -3.4863 36 36 0 0 1 1.2344 -3.3809 36 36 0 0 1 1.5645 -3.2402 36 36 0 0 1 1.8809 -3.0664 36 36 0 0 1 2.1777 -2.8652 36 36 0 0 1 2.4531 -2.6328 36 36 0 0 1 2.7031 -2.375 36 36 0 0 1 2.9277 -2.0938 36 36 0 0 1 3.1211 -1.791 36 36 0 0 1 3.2852 -1.4688 36 36 0 0 1 3.4141 -1.1348 36 36 0 0 1 3.5117 -0.78906 36 36 0 0 1 3.5723 -0.43359 36 36 0 0 1 2.547 -0.089z" fill="#ffffff"/>
  </g>
  <g>
   <circle id="path6338" cx="15.333" cy="39.333" r="2.0833" fill="#27ae60"/>
   <path id="path6443" d="m12 26a10 10 0 0 0 -10 10 10 10 0 0 0 10 10 10 10 0 0 0 10 -10 10 10 0 0 0 -10 -10zm0 2.5a7.5 7.5 0 0 1 0.7487 0.03744 7.5 7.5 0 0 1 0.74137 0.1119 7.5 7.5 0 0 1 0.72632 0.18554 7.5 7.5 0 0 1 0.70434 0.25716 7.5 7.5 0 0 1 0.67505 0.32593 7.5 7.5 0 0 1 0.63884 0.39184 7.5 7.5 0 0 1 0.59692 0.4537 7.5 7.5 0 0 1 0.54851 0.51107 7.5 7.5 0 0 1 0.49478 0.56315 7.5 7.5 0 0 1 0.4362 0.60995 7.5 7.5 0 0 1 0.37313 0.65023 7.5 7.5 0 0 1 0.30599 0.68441 7.5 7.5 0 0 1 0.23641 0.71126 7.5 7.5 0 0 1 0.16439 0.73161 7.5 7.5 0 0 1 0.09033 0.74422 7.5 7.5 0 0 1 0.01872 0.5306 7.5 7.5 0 0 1 -0.03743 0.7487 7.5 7.5 0 0 1 -0.1119 0.74137 7.5 7.5 0 0 1 -0.18554 0.72632 7.5 7.5 0 0 1 -0.25716 0.70435 7.5 7.5 0 0 1 -0.32593 0.67505 7.5 7.5 0 0 1 -0.39184 0.63924 7.5 7.5 0 0 1 -0.45369 0.59652 7.5 7.5 0 0 1 -0.51107 0.5485 7.5 7.5 0 0 1 -0.56315 0.49479 7.5 7.5 0 0 1 -0.60994 0.4362 7.5 7.5 0 0 1 -0.65023 0.37313 7.5 7.5 0 0 1 -0.68441 0.30599 7.5 7.5 0 0 1 -0.71126 0.23641 7.5 7.5 0 0 1 -0.73161 0.16439 7.5 7.5 0 0 1 -0.74422 0.09033 7.5 7.5 0 0 1 -0.5306 0.01871 7.5 7.5 0 0 1 -0.7487 -0.03744 7.5 7.5 0 0 1 -0.741 -0.111 7.5 7.5 0 0 1 -0.7264 -0.186 7.5 7.5 0 0 1 -0.7043 -0.257 7.5 7.5 0 0 1 -0.6751 -0.326 7.5 7.5 0 0 1 -0.6388 -0.392 7.5 7.5 0 0 1 -0.5969 -0.454 7.5 7.5 0 0 1 -0.5485 -0.511 7.5 7.5 0 0 1 -0.4948 -0.563 7.5 7.5 0 0 1 -0.4362 -0.61 7.5 7.5 0 0 1 -0.3732 -0.65 7.5 7.5 0 0 1 -0.3059 -0.684 7.5 7.5 0 0 1 -0.2364 -0.712 7.5 7.5 0 0 1 -0.1644 -0.731 7.5 7.5 0 0 1 -0.090334 -0.74422 7.5 7.5 0 0 1 -0.018707 -0.5306 7.5 7.5 0 0 1 0.037436 -0.7487 7.5 7.5 0 0 1 0.1119 -0.74137 7.5 7.5 0 0 1 0.18555 -0.72632 7.5 7.5 0 0 1 0.25716 -0.70434 7.5 7.5 0 0 1 0.32593 -0.67505 7.5 7.5 0 0 1 0.39185 -0.63883 7.5 7.5 0 0 1 0.45369 -0.59692 7.5 7.5 0 0 1 0.51107 -0.5485 7.5 7.5 0 0 1 0.56315 -0.49479 7.5 7.5 0 0 1 0.60995 -0.4362 7.5 7.5 0 0 1 0.65023 -0.37313 7.5 7.5 0 0 1 0.68441 -0.30599 7.5 7.5 0 0 1 0.71126 -0.23641 7.5 7.5 0 0 1 0.73161 -0.16439 7.5 7.5 0 0 1 0.74422 -0.09033 7.5 7.5 0 0 1 0.53059 -0.01871z" fill="#4d4d4d"/>
   <path id="path6598" d="m16.828 37.882-0.02157-0.02156-0.000714 0.000857a2.0833 2.0833 0 0 1 0.02236 0.02075z" fill="#000000"/>
  </g>
 </g>
</svg>
