<?xml version="1.0" encoding="UTF-8" standalone="no"?>
<svg id="svg2" xmlns:rdf="http://www.w3.org/1999/02/22-rdf-syntax-ns#" xmlns="http://www.w3.org/2000/svg" height="64" width="64" version="1.1" xmlns:cc="http://creativecommons.org/ns#" xmlns:xlink="http://www.w3.org/1999/xlink" xmlns:dc="http://purl.org/dc/elements/1.1/">
 <metadata id="metadata45">
  <rdf:RDF>
   <cc:Work rdf:about="">
    <dc:format>image/svg+xml</dc:format>
    <dc:type rdf:resource="http://purl.org/dc/dcmitype/StillImage"/>
    <dc:title/>
   </cc:Work>
  </rdf:RDF>
 </metadata>
 <defs id="defs4">
  <linearGradient id="a" gradientUnits="userSpaceOnUse" x2="0" gradientTransform="matrix(1.45 0 0 1.45 381.77 481)" y1="44" y2="4">
   <stop id="stop7" stop-color="#092240" offset="0"/>
   <stop id="stop9" stop-color="#115570" offset="1"/>
  </linearGradient>
  <linearGradient id="linearGradient6534" y2="173.62" xlink:href="#linearGradient6528" gradientUnits="userSpaceOnUse" x2="181.62" gradientTransform="translate(.01574 -11.199)" y1="88" x1="96"/>
  <linearGradient id="linearGradient6528">
   <stop id="stop6530" stop-color="#000000" stop-opacity=".2" offset="0"/>
   <stop id="stop6532" stop-color="#000000" stop-opacity="0" offset="1"/>
  </linearGradient>
  <linearGradient id="linearGradient6526" y2="984.36" xlink:href="#linearGradient6528" gradientUnits="userSpaceOnUse" x2="132" gradientTransform="translate(384.59 -515.76)" y1="912.36" x1="60"/>
  <filter id="filter6861" style="color-interpolation-filters:sRGB" height="1.288" width="1.288" y="-0.144" x="-0.144">
   <feGaussianBlur id="feGaussianBlur6863" stdDeviation="1.2"/>
  </filter>
  <filter id="filter6756" style="color-interpolation-filters:sRGB">
   <feFlood id="feFlood6758" result="flood" flood-opacity=".24706" flood-color="rgb(0,0,0)"/>
   <feComposite id="feComposite6760" operator="in" result="composite1" in2="SourceGraphic" in="flood"/>
   <feGaussianBlur id="feGaussianBlur6762" stdDeviation="3" result="blur" in="composite1"/>
   <feOffset id="feOffset6764" result="offset" dx="0" dy="3"/>
   <feComposite id="feComposite6766" operator="atop" result="composite2" in2="offset" in="offset"/>
  </filter>
  <linearGradient id="linearGradient6606" y2="120" xlink:href="#linearGradient6528" gradientUnits="userSpaceOnUse" x2="128" gradientTransform="translate(384.59 344.6)" y1="104" x1="112"/>
 </defs>
 <g id="g25" transform="translate(-384.57 -483.8)">
  <g id="g27" fill-rule="evenodd">
   <path id="path29" fill="url(#a)" d="m387.57 486.8v43.5h29l15.95 14.5v-14.5h13.05v-43.5z"/>
   <g id="g4467" transform="matrix(.37760 0 0 .37760 235.11 345.2)">
    <g id="g6353" transform="translate(384.59 344.6)">
     <path id="path6340" d="m96 40a48 48 0 0 0 -48 48 48 48 0 0 0 48 48 48 48 0 0 0 48 -48 48 48 0 0 0 -48 -48zm0 12a36 36 0 0 1 3.5938 0.17969 36 36 0 0 1 3.5586 0.53711 36 36 0 0 1 3.4863 0.89062 36 36 0 0 1 3.3809 1.2344 36 36 0 0 1 3.2402 1.5645 36 36 0 0 1 3.0664 1.8809 36 36 0 0 1 2.8652 2.1777 36 36 0 0 1 2.6328 2.4531 36 36 0 0 1 2.375 2.7031 36 36 0 0 1 2.0938 2.9277 36 36 0 0 1 1.791 3.1211 36 36 0 0 1 1.4688 3.2852 36 36 0 0 1 1.1348 3.4141 36 36 0 0 1 0.78906 3.5117 36 36 0 0 1 0.4336 3.5723 36 36 0 0 1 0.09 2.547 36 36 0 0 1 -0.17969 3.5938 36 36 0 0 1 -0.53711 3.5586 36 36 0 0 1 -0.89062 3.4863 36 36 0 0 1 -1.2344 3.3809 36 36 0 0 1 -1.5644 3.2402 36 36 0 0 1 -1.8809 3.0684 36 36 0 0 1 -2.1777 2.8633 36 36 0 0 1 -2.4531 2.6328 36 36 0 0 1 -2.7031 2.375 36 36 0 0 1 -2.9277 2.0938 36 36 0 0 1 -3.1211 1.791 36 36 0 0 1 -3.2852 1.4688 36 36 0 0 1 -3.4141 1.1348 36 36 0 0 1 -3.5117 0.78906 36 36 0 0 1 -3.5723 0.4336 36 36 0 0 1 -2.547 0.09 36 36 0 0 1 -3.5938 -0.17969 36 36 0 0 1 -3.5586 -0.53711 36 36 0 0 1 -3.4863 -0.89062 36 36 0 0 1 -3.3809 -1.2344 36 36 0 0 1 -3.2402 -1.5644 36 36 0 0 1 -3.0664 -1.8809 36 36 0 0 1 -2.8652 -2.1777 36 36 0 0 1 -2.6328 -2.4531 36 36 0 0 1 -2.375 -2.7031 36 36 0 0 1 -2.0938 -2.9277 36 36 0 0 1 -1.791 -3.1211 36 36 0 0 1 -1.4688 -3.2852 36 36 0 0 1 -1.135 -3.409 36 36 0 0 1 -0.789 -3.512 36 36 0 0 1 -0.433 -3.572 36 36 0 0 1 -0.09 -2.547 36 36 0 0 1 0.17969 -3.5938 36 36 0 0 1 0.53711 -3.5586 36 36 0 0 1 0.89062 -3.4863 36 36 0 0 1 1.2344 -3.3809 36 36 0 0 1 1.5645 -3.2402 36 36 0 0 1 1.8809 -3.0664 36 36 0 0 1 2.1777 -2.8652 36 36 0 0 1 2.4531 -2.6328 36 36 0 0 1 2.7031 -2.375 36 36 0 0 1 2.9277 -2.0938 36 36 0 0 1 3.1211 -1.791 36 36 0 0 1 3.2852 -1.4688 36 36 0 0 1 3.4141 -1.1348 36 36 0 0 1 3.5117 -0.78906 36 36 0 0 1 3.5723 -0.43359 36 36 0 0 1 2.547 -0.089z" fill="#ffffff"/>
    </g>
    <g>
     <path id="path6518" d="m130.21 42.609-0.27148 0.27148c0.97324 0.95914 1.9051 1.9594 2.793 2.998 1.0305 1.2236 1.9991 2.498 2.9023 3.8184 0.90364 1.3213 1.7406 2.6869 2.5078 4.0918 0.76755 1.4044 1.4644 2.8463 2.0879 4.3203 0.62293 1.4736 1.1718 2.9774 1.6445 4.5059 0.47313 1.5294 0.86946 3.0814 1.1875 4.6504 0.3178 1.5678 0.55704 3.1505 0.7168 4.7422 0.15994 1.5926 0.24013 3.1923 0.24023 4.793-0.0003 1.1326-0.0407 2.2648-0.12109 3.3945-0.11317 1.5965-0.30611 3.1864-0.57812 4.7637-0.272 1.5771-0.6227 3.1396-1.0508 4.6816-0.42771 1.5418-0.93224 3.0613-1.5117 4.5527-0.58018 1.4921-1.2346 2.9542-1.9609 4.3809-0.72575 1.4256-1.5223 2.8141-2.3867 4.1602-0.86465 1.3472-1.7962 2.6502-2.791 3.9043-0.99462 1.2532-2.0513 2.4559-3.166 3.6035-0.17005 0.16075-0.34128 0.32026-0.51367 0.47851-0.95914 0.97324-1.9594 1.9051-2.998 2.793-1.2236 1.0305-2.498 1.9991-3.8184 2.9024-1.3213 0.90364-2.6869 1.7406-4.0918 2.5078-1.4044 0.76755-2.8463 1.4644-4.3203 2.0879-1.4736 0.62293-2.9774 1.1718-4.5059 1.6445-1.5294 0.47313-3.0814 0.86946-4.6504 1.1875-1.5678 0.3178-3.1505 0.55704-4.7422 0.7168-1.5926 0.15994-3.1923 0.24012-4.793 0.24023-1.1326-0.0003-2.2648-0.0407-3.3945-0.12109-1.5965-0.11317-3.1864-0.30612-4.7637-0.57813-1.5771-0.272-3.1396-0.62269-4.6816-1.0508-1.5418-0.42771-3.0613-0.93225-4.5527-1.5117-1.4921-0.58018-2.9542-1.2346-4.3809-1.9609-1.4256-0.72575-2.8141-1.5223-4.1602-2.3867-1.2804-0.82656-2.5208-1.7136-3.7168-2.6582l19.865 19.867h9.7695l42.24 38.4v-38.4h34.561v-49.197l-42.594-42.594z" transform="translate(384.57,355.8)" fill="url(#linearGradient6534)"/>
     <path id="path6484" d="m506.04 407.15a36 36 0 0 0 -1.8644 -1.7374 36 36 0 0 0 -2.8326 -2.2194 36 36 0 0 0 -3.0411 -1.9252 36 36 0 0 0 -3.2165 -1.6117 36 36 0 0 0 -3.3615 -1.2844 36 36 0 0 0 -3.4734 -0.94051 36 36 0 0 0 -3.5507 -0.58972 36 36 0 0 0 -3.5908 -0.23201 36 36 0 0 0 -3.5963 0.12705 36 36 0 0 0 -3.5659 0.48614 36 36 0 0 0 -3.4982 0.83831 36 36 0 0 0 -3.3974 1.185 36 36 0 0 0 -3.2635 1.5178 36 36 0 0 0 -3.095 1.8354 36 36 0 0 0 -2.8961 2.1365 36 36 0 0 0 -2.6682 2.4141 36 36 0 0 0 -1.7374 1.8644 36 36 0 0 0 -2.2194 2.8326 36 36 0 0 0 -1.9252 3.0411 36 36 0 0 0 -1.6117 3.2165 36 36 0 0 0 -1.2844 3.3615 36 36 0 0 0 -0.94051 3.4734 36 36 0 0 0 -0.58972 3.5507 36 36 0 0 0 -0.23201 3.5908 36 36 0 0 0 0.12705 3.5963 36 36 0 0 0 0.48614 3.5659 36 36 0 0 0 0.83831 3.4982 36 36 0 0 0 1.185 3.3974 36 36 0 0 0 1.5178 3.2635 36 36 0 0 0 1.8354 3.095 36 36 0 0 0 2.1365 2.8961 36 36 0 0 0 2.4141 2.6682 36 36 0 0 0 1.8644 1.7374 36 36 0 0 0 2.8326 2.2194 36 36 0 0 0 3.0411 1.9252 36 36 0 0 0 3.2165 1.6117 36 36 0 0 0 3.3615 1.2844 36 36 0 0 0 3.4734 0.94051 36 36 0 0 0 3.5507 0.58972 36 36 0 0 0 3.5908 0.23201 36 36 0 0 0 3.5963 -0.12705 36 36 0 0 0 3.5645 -0.48476 36 36 0 0 0 3.4996 -0.83968 36 36 0 0 0 3.3974 -1.185 36 36 0 0 0 3.2635 -1.5178 36 36 0 0 0 3.095 -1.8354 36 36 0 0 0 2.8961 -2.1365 36 36 0 0 0 2.6682 -2.4141 36 36 0 0 0 1.7374 -1.8644 36 36 0 0 0 2.2194 -2.8326 36 36 0 0 0 1.9252 -3.0411 36 36 0 0 0 1.6117 -3.2165 36 36 0 0 0 1.2844 -3.3615 36 36 0 0 0 0.94051 -3.4734 36 36 0 0 0 0.58972 -3.5507 36 36 0 0 0 0.23202 -3.5908 36 36 0 0 0 -0.12706 -3.5963 36 36 0 0 0 -0.48614 -3.5659 36 36 0 0 0 -0.8383 -3.4982 36 36 0 0 0 -1.185 -3.3974 36 36 0 0 0 -1.5178 -3.2635 36 36 0 0 0 -1.8354 -3.095 36 36 0 0 0 -2.1365 -2.8961 36 36 0 0 0 -2.4141 -2.6682z" fill="url(#linearGradient6526)"/>
     <circle id="circle6831" opacity=".25" cx="496.59" filter="url(#filter6861)" cy="451.6" r="10" fill="#000000"/>
     <circle id="path6338" cy="448.6" cx="496.59" r="10" fill="#ffffff"/>
    </g>
    <g id="g6738" filter="url(#filter6756)" transform="translate(384.59 344.6)">
     <path id="path6742" d="m96 40a48 48 0 0 0 -48 48 48 48 0 0 0 48 48 48 48 0 0 0 48 -48 48 48 0 0 0 -48 -48zm0 12a36 36 0 0 1 3.5938 0.17969 36 36 0 0 1 3.5586 0.53711 36 36 0 0 1 3.4863 0.89062 36 36 0 0 1 3.3809 1.2344 36 36 0 0 1 3.2402 1.5645 36 36 0 0 1 3.0664 1.8809 36 36 0 0 1 2.8652 2.1777 36 36 0 0 1 2.6328 2.4531 36 36 0 0 1 2.375 2.7031 36 36 0 0 1 2.0938 2.9277 36 36 0 0 1 1.791 3.1211 36 36 0 0 1 1.4688 3.2852 36 36 0 0 1 1.1348 3.4141 36 36 0 0 1 0.78906 3.5117 36 36 0 0 1 0.4336 3.5723 36 36 0 0 1 0.09 2.547 36 36 0 0 1 -0.17969 3.5938 36 36 0 0 1 -0.53711 3.5586 36 36 0 0 1 -0.89062 3.4863 36 36 0 0 1 -1.2344 3.3809 36 36 0 0 1 -1.5644 3.2402 36 36 0 0 1 -1.8809 3.0684 36 36 0 0 1 -2.1777 2.8633 36 36 0 0 1 -2.4531 2.6328 36 36 0 0 1 -2.7031 2.375 36 36 0 0 1 -2.9277 2.0938 36 36 0 0 1 -3.1211 1.791 36 36 0 0 1 -3.2852 1.4688 36 36 0 0 1 -3.4141 1.1348 36 36 0 0 1 -3.5117 0.78906 36 36 0 0 1 -3.5723 0.4336 36 36 0 0 1 -2.547 0.09 36 36 0 0 1 -3.5938 -0.17969 36 36 0 0 1 -3.5586 -0.53711 36 36 0 0 1 -3.4863 -0.89062 36 36 0 0 1 -3.3809 -1.2344 36 36 0 0 1 -3.2402 -1.5644 36 36 0 0 1 -3.0664 -1.8809 36 36 0 0 1 -2.8652 -2.1777 36 36 0 0 1 -2.6328 -2.4531 36 36 0 0 1 -2.375 -2.7031 36 36 0 0 1 -2.0938 -2.9277 36 36 0 0 1 -1.791 -3.1211 36 36 0 0 1 -1.4688 -3.2852 36 36 0 0 1 -1.135 -3.409 36 36 0 0 1 -0.789 -3.512 36 36 0 0 1 -0.433 -3.572 36 36 0 0 1 -0.09 -2.547 36 36 0 0 1 0.17969 -3.5938 36 36 0 0 1 0.53711 -3.5586 36 36 0 0 1 0.89062 -3.4863 36 36 0 0 1 1.2344 -3.3809 36 36 0 0 1 1.5645 -3.2402 36 36 0 0 1 1.8809 -3.0664 36 36 0 0 1 2.1777 -2.8652 36 36 0 0 1 2.4531 -2.6328 36 36 0 0 1 2.7031 -2.375 36 36 0 0 1 2.9277 -2.0938 36 36 0 0 1 3.1211 -1.791 36 36 0 0 1 3.2852 -1.4688 36 36 0 0 1 3.4141 -1.1348 36 36 0 0 1 3.5117 -0.78906 36 36 0 0 1 3.5723 -0.43359 36 36 0 0 1 2.547 -0.089z" fill="#ffffff"/>
    </g>
    <g>
     <path id="path6443" d="m480.59 384.6a48 48 0 0 0 -48 48 48 48 0 0 0 48 48 48 48 0 0 0 48 -48 48 48 0 0 0 -48 -48zm0 12a36 36 0 0 1 3.5938 0.17969 36 36 0 0 1 3.5586 0.53711 36 36 0 0 1 3.4863 0.89062 36 36 0 0 1 3.3809 1.2344 36 36 0 0 1 3.2402 1.5644 36 36 0 0 1 3.0664 1.8809 36 36 0 0 1 2.8652 2.1777 36 36 0 0 1 2.6328 2.4531 36 36 0 0 1 2.375 2.7031 36 36 0 0 1 2.0938 2.9277 36 36 0 0 1 1.791 3.1211 36 36 0 0 1 1.4688 3.2852 36 36 0 0 1 1.1348 3.4141 36 36 0 0 1 0.78906 3.5117 36 36 0 0 1 0.4336 3.5723 36 36 0 0 1 0.0898 2.5469 36 36 0 0 1 -0.17969 3.5938 36 36 0 0 1 -0.53711 3.5586 36 36 0 0 1 -0.89062 3.4863 36 36 0 0 1 -1.2344 3.3809 36 36 0 0 1 -1.5644 3.2402 36 36 0 0 1 -1.8809 3.0684 36 36 0 0 1 -2.1777 2.8633 36 36 0 0 1 -2.4531 2.6328 36 36 0 0 1 -2.7031 2.375 36 36 0 0 1 -2.9277 2.0938 36 36 0 0 1 -3.1211 1.791 36 36 0 0 1 -3.2852 1.4688 36 36 0 0 1 -3.4141 1.1348 36 36 0 0 1 -3.5117 0.78906 36 36 0 0 1 -3.5723 0.4336 36 36 0 0 1 -2.5469 0.0898 36 36 0 0 1 -3.5938 -0.17969 36 36 0 0 1 -3.5586 -0.53711 36 36 0 0 1 -3.4863 -0.89062 36 36 0 0 1 -3.3809 -1.2344 36 36 0 0 1 -3.2402 -1.5644 36 36 0 0 1 -3.0664 -1.8809 36 36 0 0 1 -2.8652 -2.1777 36 36 0 0 1 -2.6328 -2.4531 36 36 0 0 1 -2.375 -2.7031 36 36 0 0 1 -2.0938 -2.9277 36 36 0 0 1 -1.791 -3.1211 36 36 0 0 1 -1.4688 -3.2852 36 36 0 0 1 -1.1347 -3.414 36 36 0 0 1 -0.78906 -3.5117 36 36 0 0 1 -0.4336 -3.5723 36 36 0 0 1 -0.0898 -2.5469 36 36 0 0 1 0.17969 -3.5938 36 36 0 0 1 0.53711 -3.5586 36 36 0 0 1 0.89062 -3.4863 36 36 0 0 1 1.2344 -3.3809 36 36 0 0 1 1.5644 -3.2402 36 36 0 0 1 1.8809 -3.0664 36 36 0 0 1 2.1777 -2.8652 36 36 0 0 1 2.4531 -2.6328 36 36 0 0 1 2.7031 -2.375 36 36 0 0 1 2.9277 -2.0938 36 36 0 0 1 3.1211 -1.791 36 36 0 0 1 3.2852 -1.4688 36 36 0 0 1 3.4141 -1.1348 36 36 0 0 1 3.5117 -0.78906 36 36 0 0 1 3.5723 -0.4336 36 36 0 0 1 2.5468 -0.0898z" fill="#ffffff"/>
     <path id="path6598" d="m503.76 441.63-0.10352-0.10351-0.004 0.004a10 10 0 0 1 0.10742 0.0996z" fill-rule="evenodd" fill="#000000"/>
     <path id="path6596" d="m489.52 455.67-0.004 0.004 8.4258 8.4258a36 36 0 0 0 2.0957 -1.2031 36 36 0 0 0 2.9277 -2.0938 36 36 0 0 0 2.7031 -2.375 36 36 0 0 0 2.4531 -2.6328 36 36 0 0 0 2.1777 -2.8633 36 36 0 0 0 1.8066 -2.9492l-8.3457-8.3457a10 10 0 0 1 0.66015 0.75 10 10 0 0 1 0.58008 0.81446 10 10 0 0 1 0.49805 0.86718 10 10 0 0 1 0.4082 0.91211 10 10 0 0 1 0.31446 0.94727 10 10 0 0 1 0.2207 0.97656 10 10 0 0 1 0.11914 0.99219 10 10 0 0 1 0.0255 0.70693 10 10 0 0 1 -0.0508 0.99805 10 10 0 0 1 -0.14844 0.98828 10 10 0 0 1 -0.24805 0.96875 10 10 0 0 1 -0.34179 0.93945 10 10 0 0 1 -0.43555 0.90039 10 10 0 0 1 -0.52148 0.85156 10 10 0 0 1 -0.60547 0.79493 10 10 0 0 1 -0.68164 0.73242 10 10 0 0 1 -0.75 0.66015 10 10 0 0 1 -0.81446 0.58008 10 10 0 0 1 -0.86718 0.49805 10 10 0 0 1 -0.91211 0.4082 10 10 0 0 1 -0.94727 0.31446 10 10 0 0 1 -0.97656 0.2207 10 10 0 0 1 -0.99219 0.11914 10 10 0 0 1 -0.70701 0.0254 10 10 0 0 1 -0.99805 -0.0508 10 10 0 0 1 -0.98828 -0.14844 10 10 0 0 1 -0.96875 -0.24805 10 10 0 0 1 -0.93945 -0.34179 10 10 0 0 1 -0.90039 -0.43555 10 10 0 0 1 -0.85156 -0.52148 10 10 0 0 1 -0.79493 -0.60547 10 10 0 0 1 -0.625 -0.58203z" fill-rule="evenodd" fill="url(#linearGradient6606)"/>
    </g>
   </g>
  </g>
 </g>
</svg>
